<?xml version="1.0" encoding="UTF-8"?>
<svg id="_レイヤー_1" data-name="レイヤー 1" xmlns="http://www.w3.org/2000/svg" viewBox="0 0 171.13 49.32">
  <defs>
    <style>
      .cls-1 {
        stroke-width: 0px;
      }

      .cls-2 {
        fill: #fff352;
        stroke: #5aff19;
      }

      .cls-2, .cls-3 {
        stroke-miterlimit: 10;
      }

      .cls-3 {
        fill: #5aff19;
        stroke: #fff352;
      }
    </style>
  </defs>
  <g>
    <path class="cls-3" d="m21.48,7.69c.17,1.3.34,2.59.51,3.89-2.67.35-5.34.72-8,1.11,1.02,6.93,2.03,13.87,3.05,20.8-1.52.22-3.04.45-4.56.69-1.08-6.92-2.17-13.85-3.25-20.77-2.66.42-5.32.86-7.98,1.32-.22-1.29-.45-2.58-.67-3.87,6.95-1.21,13.92-2.26,20.9-3.17Z"/>
    <path class="cls-2" d="m41.33,5.51c1.6-.14,3.19-.28,4.79-.4.66,8.29,1.32,16.58,1.98,24.87-1.52.12-3.03.25-4.55.38-.33-3.67-.66-7.34-.98-11.01-3.71.33-7.41.7-11.11,1.12.41,3.66.82,7.32,1.24,10.98-1.51.17-3.03.35-4.54.53-1.01-8.25-2.02-16.51-3.03-24.76,1.59-.19,3.19-.38,4.78-.56.37,3.3.74,6.61,1.12,9.91,3.73-.42,7.47-.8,11.2-1.13-.3-3.31-.59-6.62-.89-9.93Z"/>
    <path class="cls-2" d="m57.38,4.95c.05.81-.2,1.48-.72,1.99-.53.51-1.17.79-1.92.84-.78.05-1.47-.15-2.05-.59-.59-.44-.91-1.07-.97-1.88-.06-.84.18-1.52.7-2.03.53-.52,1.19-.8,1.98-.85.76-.05,1.44.15,2.03.6.59.45.9,1.09.95,1.93Zm.91,24.32c-1.46.08-2.92.18-4.38.27-.42-6.26-.84-12.52-1.26-18.79,1.52-.1,3.03-.2,4.55-.28.36,6.27.72,12.53,1.09,18.8Z"/>
    <path class="cls-2" d="m79.86,27.95c-.87.28-1.96.53-3.27.77-1.31.24-2.69.38-4.13.42-1.5.04-2.84-.14-4.04-.55-1.2-.41-2.23-1.02-3.11-1.84-.87-.82-1.56-1.82-2.07-3.01-.51-1.19-.8-2.54-.87-4.05-.07-1.49.05-2.84.38-4.07.33-1.23.85-2.29,1.56-3.19.71-.9,1.6-1.6,2.66-2.11,1.06-.51,2.3-.79,3.7-.83.95-.03,1.8.06,2.53.25.73.2,1.37.42,1.9.68-.06-3.01-.13-6.02-.19-9.03,1.54-.27,3.08-.54,4.62-.8.11,9.12.22,18.24.33,27.36Zm-12.92-8.57c.07,1.92.6,3.4,1.56,4.46.97,1.06,2.26,1.56,3.89,1.52.7-.02,1.31-.06,1.8-.14.5-.07.9-.15,1.22-.23-.08-3.6-.15-7.2-.23-10.8-.4-.26-.94-.49-1.6-.7-.67-.21-1.37-.31-2.12-.29-1.65.05-2.83.63-3.55,1.74-.72,1.11-1.04,2.58-.97,4.43Z"/>
    <path class="cls-2" d="m84.37,19.17c0-1.66.24-3.11.75-4.36.51-1.25,1.19-2.29,2.04-3.11.85-.83,1.83-1.44,2.94-1.85,1.11-.41,2.24-.61,3.4-.59,2.71.04,4.81.9,6.28,2.55,1.47,1.65,2.13,4.08,2.03,7.27,0,.24-.02.51-.05.81-.02.3-.05.57-.08.81-4.23-.14-8.47-.23-12.7-.26.11,1.51.65,2.69,1.6,3.52.95.84,2.34,1.27,4.16,1.3,1.07.02,2.05-.05,2.94-.22.89-.17,1.6-.35,2.12-.55.16,1.19.32,2.39.47,3.58-.25.11-.58.23-1.01.35-.43.12-.91.23-1.46.32-.55.09-1.13.17-1.76.23-.63.06-1.27.08-1.92.07-1.66-.03-3.11-.29-4.33-.8-1.23-.5-2.24-1.19-3.04-2.07-.8-.88-1.4-1.91-1.79-3.1-.39-1.19-.59-2.49-.6-3.91Zm13.01-1.8c.01-.6-.06-1.17-.22-1.72-.16-.54-.4-1.02-.73-1.42-.33-.4-.73-.72-1.21-.96-.48-.24-1.06-.36-1.73-.37-.7-.01-1.31.11-1.84.35-.53.25-.97.57-1.34.98-.37.4-.65.87-.85,1.4-.2.53-.34,1.07-.42,1.62,2.78.02,5.56.06,8.34.13Z"/>
    <path class="cls-2" d="m123.96,20.59c-.12,1.48-.45,2.82-.98,4-.54,1.19-1.23,2.18-2.1,2.98-.86.8-1.87,1.4-3.02,1.8-1.15.4-2.4.56-3.75.48-1.35-.08-2.56-.39-3.65-.93-1.08-.54-2.01-1.26-2.77-2.16-.76-.9-1.34-1.97-1.74-3.21-.4-1.24-.57-2.61-.51-4.09.06-1.49.34-2.83.86-4.02.51-1.19,1.2-2.2,2.08-3.02.88-.82,1.9-1.44,3.08-1.85,1.18-.41,2.46-.57,3.84-.49,1.38.08,2.64.4,3.77.95,1.13.55,2.08,1.28,2.84,2.21.76.92,1.32,2.01,1.68,3.25.36,1.24.48,2.61.36,4.09Zm-4.57-.34c.13-1.87-.18-3.37-.93-4.52-.76-1.15-1.89-1.77-3.38-1.86-1.49-.09-2.69.39-3.58,1.44-.89,1.05-1.38,2.51-1.47,4.38-.1,1.89.24,3.41,1,4.56.76,1.15,1.86,1.76,3.32,1.85,1.46.09,2.62-.39,3.52-1.43.89-1.05,1.41-2.51,1.54-4.4Z"/>
    <path class="cls-2" d="m143.27,31.45c-.87.11-1.99.2-3.36.27-1.37.07-2.86.02-4.47-.15-1.51-.16-2.76-.5-3.74-1.03-.98-.53-1.74-1.2-2.29-2.03-.54-.82-.9-1.78-1.08-2.86-.17-1.09-.2-2.26-.09-3.53.31-3.5.62-7,.94-10.51,1.51.13,3.03.28,4.54.43-.32,3.27-.64,6.54-.97,9.82-.2,2.01-.04,3.47.47,4.39.51.92,1.5,1.45,2.98,1.61.53.06,1.1.09,1.7.11.6.02,1.05,0,1.35-.03.57-5.04,1.14-10.09,1.72-15.13,1.51.17,3.02.35,4.53.54-.74,6.04-1.48,12.08-2.23,18.12Z"/>
    <path class="cls-3" d="m170.55,10.86c-.22,1.29-.45,2.58-.67,3.87-2.66-.46-5.31-.9-7.98-1.32-1.08,6.92-2.17,13.85-3.25,20.77-1.52-.24-3.04-.47-4.56-.69,1.02-6.93,2.03-13.87,3.05-20.8-2.66-.39-5.33-.76-8-1.11.17-1.3.34-2.59.51-3.89,6.98.91,13.95,1.96,20.9,3.17Z"/>
  </g>
  <g>
    <path class="cls-1" d="m21.94,42.63l-.2-1.28c1.55.1,3.97.11,6.24.11h3.15v1.17h-9.19Z"/>
    <path class="cls-1" d="m35.54,45.25v-6.1h2.23v-1.5h-4.61v-.47h10.55v.47h-4.63v1.5h2.27v6.1h-5.82Zm6.5,2.15v-.72h-7.2v.72h-1.33v-7.7h1.33v6.5h7.2v-6.5h1.33v7.71h-1.33Zm-4.27-7.78h-1v2.23h1v-2.23Zm0,2.7h-1v2.47h1v-2.47Zm2.35-2.7h-1.03v2.23h1.03v-2.23Zm0,2.7h-1.03v2.47h1.03v-2.47Z"/>
    <path class="cls-1" d="m46.12,47.4v-5.89c-.25.4-.5.72-.79,1.03l-.29-.26c.83-1.6,1.5-3.67,1.73-5.66l1.6.42c-.24.78-.55,1.58-.94,2.34v8.02h-1.31Zm8.84-.67c-.68-.71-1.33-1.52-1.92-2.36.13.43.2.91.2,1.42v.19c-.02.82-.34,1.43-1.39,1.43-.46,0-1.07-.12-1.85-.38v-.48c.56.17.94.26,1.2.26.47,0,.58-.28.67-.83.02-.18.05-.38.05-.54-1.2.68-2.83,1.1-4.2,1.29l-.16-.38c1.55-.52,3.26-1.42,4.31-2.38,0,0-.02-.19-.07-.36-1.03.61-2.59,1.09-3.83,1.24l-.14-.36c1.21-.43,2.65-1.21,3.54-2.05l-.08-.18c-.92.47-2.13.8-3.14.95l-.17-.32c1.09-.38,2.05-.89,2.65-1.42h-2.28v-1.84c-.19.1-.29.13-.48.2l-.17-.34c1.01-.74,1.9-1.8,2.42-2.88l1.64.49c-.11.16-.22.3-.35.44h2.85v.44c-.32.35-.86.72-1.43,1.02h2.38v2.45h-2.72c-.25.2-.53.4-.84.58.29.29.55.62.77.97.62-.37,1.27-1,1.62-1.48l1.46.96c-.82.38-1.91.7-2.84.83,1,.79,2.28,1.48,3.25,1.88l-.96,1.52Zm-3.95-8.73c-.4.38-.88.72-1.38,1.02h2.35c.24-.29.47-.66.6-1.02h-1.57Zm.08,1.45h-1.39v1.58h1.39v-1.58Zm2.77,0h-1.46v1.58h1.46v-1.58Z"/>
    <path class="cls-1" d="m66.16,46.6c-.67.1-1.63.14-2.6.14-.72,0-1.45-.02-2.09-.07-2.05-.14-3.07-1.08-3.07-2.13,0-.65.38-1.33,1.14-1.9.42-.32.98-.63,1.64-.95-.23-1.12-.49-2.71-.67-4.19l1.74-.19c.06,1.3.26,2.77.46,3.74.98-.37,2.06-.7,3.13-.95l.2.61c-2.54.56-5.03,1.49-5.86,2.15-.49.38-.74.78-.74,1.14,0,.59.67,1.08,2.07,1.2.41.04.89.05,1.38.05,1.18,0,2.47-.1,3.29-.25v1.59Z"/>
    <path class="cls-1" d="m69.07,40.4v-.43h1.34v-1.56h-1v-.43h1v-1.37h1.24v1.37h.82v-1.37h1.24v1.37h1.02v.43h-1.02v1.56h1.24v.43h-5.86Zm3.84,4.45h-1.67v2.54h-1.39v-6.21h4.45v4.79c0,.83-.24,1.43-1.08,1.43-.37,0-.85-.11-1.48-.37v-.44c.38.13.64.2.82.2.31,0,.35-.25.35-.82v-1.12Zm0-3.24h-1.67v1.15h1.67v-1.15Zm0,1.58h-1.67v1.22h1.67v-1.22Zm-.44-4.79h-.82v1.56h.82v-1.56Zm6.61,8.98c-.89-.53-1.55-1.2-2.04-2.05-.64.77-1.49,1.43-2.66,2.06l-.2-.32c1.13-.89,1.86-1.8,2.35-2.81-.43-.9-.78-1.96-.94-3.15-.26.48-.56.96-.9,1.42l-.26-.19c.73-2.05,1.01-3.97,1.06-5.71l1.62.32c-.13.6-.29,1.18-.47,1.74h3.09v.43h-.7c-.25,2.18-.55,3.85-1.32,5.23.56.62,1.26,1.08,2.13,1.4l-.77,1.63Zm-2.6-8.26c-.18.52-.4,1.02-.65,1.51.25,1.02.67,1.92,1.12,2.58.37-1.16.52-2.48.65-4.09h-1.12Z"/>
    <path class="cls-1" d="m90.9,47.37c-1.88-.42-3.36-1.29-4.49-2.35-1.18.9-2.89,1.74-5.07,2.35l-.17-.37c1.83-.76,3.57-1.72,4.56-2.77-.95-1.28-1.76-2.96-2.35-4.79h-1.96v-.54h4.19v-2.1h1.64v2.1h4.16v.54h-1.38c-.61,1.83-1.59,3.67-2.71,4.77,1.16.79,2.5,1.26,4.38,1.51l-.8,1.64Zm-7.08-7.93c.68,1.75,1.56,3.3,2.57,4.2.89-1.04,1.56-2.67,1.94-4.2h-4.51Z"/>
    <path class="cls-1" d="m97.93,46.11c2.43-.42,3.54-1.66,3.65-3.56,0-.1.01-.19.01-.29,0-2.06-1.25-3.25-2.73-3.25-.24,3.29-1.19,5.48-2.96,6.56-.32.2-.65.3-.94.3-.78,0-1.37-.72-1.37-2.15,0-.22.01-.44.04-.68.25-2.25,2.39-4.43,5.24-4.43s4.51,1.43,4.51,3.75c0,.08-.01.18-.01.28-.13,2.34-2.05,3.68-5.3,3.81l-.13-.35Zm-2.78-3.32c-.02.24-.04.46-.04.64,0,.67.17.97.46.97.14,0,.31-.08.52-.22,1.07-.73,1.9-2.49,2.25-5.14-1.89.28-3.01,2.09-3.19,3.75Z"/>
    <path class="cls-1" d="m108.4,45.77v-4.59h1.87v-.72h-4.76v-.43h4.76v-.7h-4.26v-2.24h8.93v2.24h-3.25v.7h3.77v.43h-3.77v.72h2.54v4.59h-5.84Zm-.92,1.16v.47h-1.45v-5.65h1.45v4.76h8.36v.43h-8.36Zm1.02-9.42h-1.03v1.38h1.03v-1.38Zm4.34,4.09h-3.03v.9h3.03v-.9Zm0,1.33h-3.03v.96h3.03v-.96Zm0,1.39h-3.03v1.01h3.03v-1.01Zm-1.86-6.81h-1.08v1.38h1.08v-1.38Zm2.53,0h-1.14v1.38h1.14v-1.38Z"/>
    <path class="cls-1" d="m125.38,46.8c-.58.14-1.54.23-2.41.23-.26,0-.52-.01-.76-.02-2.51-.16-3.79-.96-3.79-2.38,0-1.03.96-1.7,2.84-1.86.13-.01.26-.01.4-.01.88,0,1.94.19,2.59.59-.59-.64-1.12-1.36-1.58-2.22-1.51.13-3.07.23-4.57.28l-.02-.49c1.43-.05,2.9-.13,4.34-.25-.22-.44-.43-.91-.62-1.4-1.08.1-2.15.17-3.11.22l-.05-.49c.9-.02,1.93-.08,2.97-.18-.16-.43-.31-.89-.46-1.35l1.64-.36c.11.56.28,1.06.44,1.55.98-.1,2.05-.22,2.79-.32l.08.5c-.74.1-1.76.19-2.7.29.2.49.42.95.66,1.39.97-.1,2.04-.22,2.92-.34l.1.5c-.83.11-1.83.22-2.75.31.47.78,1.07,1.48,1.74,2.17l-1.33,1.07c-1-.62-2.1-.98-3.05-.98-.1,0-.19,0-.29.01-1.28.11-1.78.48-1.78,1.09,0,.76.7,1.27,2.71,1.34h.26c.82,0,1.96-.1,2.66-.28l.1,1.4Z"/>
    <path class="cls-1" d="m132.83,43.29c-1.07.71-2.25,1.46-3.49,2.01l-.28-1.64c.43-.04.84-.08,1.26-.14v-3.3h-1.07v-.43h1.07v-2.95h1.3v2.95h1.1v.43h-1.1v3.06c.41-.1.8-.19,1.21-.3v.31Zm3.26,3.31c.47.12.82.18,1.07.18.52,0,.66-.24.76-.77.11-.58.19-1.58.19-2.81h-.26c-.84,2.16-2.13,3.19-4.41,3.99l-.16-.31c1.66-.97,2.7-2.18,3.21-3.68h-.38c-.68,1.27-1.93,2.28-3.45,2.88l-.13-.34c1.01-.67,1.86-1.61,2.25-2.54h-.44c-.55.49-1.25.95-1.94,1.28l-.16-.29c.77-.67,1.45-1.49,1.74-2.3h-1.55v-.43h7.41v.43h-4.34c-.19.29-.43.59-.71.88h4.7c0,1.46-.1,2.67-.23,3.48-.13.79-.42,1.15-1.18,1.15-.46,0-1.1-.13-1.99-.41v-.4Zm-2.72-5.85v-3.67h5.41v3.67h-5.41Zm4.08-3.24h-2.75v1.18h2.75v-1.18Zm0,1.61h-2.75v1.2h2.75v-1.2Z"/>
    <path class="cls-1" d="m141.94,42.63l-.2-1.28c1.55.1,3.97.11,6.24.11h3.15v1.17h-9.19Z"/>
  </g>
</svg>